<?xml version="1.0" standalone="no"?>
<!DOCTYPE svg PUBLIC "-//W3C//DTD SVG 20010904//EN"
 "http://www.w3.org/TR/2001/REC-SVG-20010904/DTD/svg10.dtd">
<svg version="1.0" xmlns="http://www.w3.org/2000/svg"
 width="512.000000pt" height="512.000000pt" viewBox="0 0 512.000000 512.000000"
 preserveAspectRatio="xMidYMid meet">

<g transform="translate(0.000000,512.000000) scale(0.100000,-0.100000)"
fill="#000000" stroke="none">
<path d="M1640 1623 c1 -33 5 -33 990 -31 919 3 975 4 978 21 3 16 -49 17
-982 17 -542 0 -986 -3 -986 -7z"/>
<path d="M670 1461 l0 -117 328 -189 c180 -104 533 -307 785 -452 l459 -263
121 0 c67 0 137 -4 155 -9 l33 -10 -3 37 -3 37 -325 189 c-179 103 -503 291
-720 416 -217 125 -493 284 -612 353 l-218 126 0 -118z"/>
<path d="M4090 1373 c-195 -114 -616 -357 -935 -542 l-580 -336 -3 -37 -3 -37
33 10 c18 5 88 9 155 9 l121 0 459 263 c252 145 605 348 786 452 l327 189 0
118 c0 65 -1 118 -2 117 -2 0 -163 -93 -358 -206z"/>
</g>
</svg>
